<svg xmlns="http://www.w3.org/2000/svg" width="695.743" height="838.91" viewBox="0 0 695.743 838.91">
  <g id="kyoki-logo" transform="translate(0.007 0.01)">
    <path id="Path_209" data-name="Path 209" d="M1316.361-700.847c-.2,1.7-.318,3.448-.658,5.127a13.422,13.422,0,0,1-1.361,4.265,37,37,0,0,1-20.282,15.586c-10.822,3.788-21.824,7.191-32.578,11.184-48.844,18.149-92.7,44.284-130.289,80.605q-6.806,6.6-14.065,12.818c-3.584,3.108-8.054,2.881-12.364,2.269-.7,0-1.815-2.269-1.633-3.131a100.014,100.014,0,0,1,3.562-14.429c6.443-17.7,15.881-33.871,25.454-49.91a414.069,414.069,0,0,1,44.443-62.342c19.783-22.687,41.743-42.605,68.468-56.716a130.068,130.068,0,0,1,36.616-13.294,6.648,6.648,0,0,1,4.015.635c16.4,8.916,25.318,23.118,28.426,41.153.953,5.626,1.157,11.343,1.724,17.038a8.883,8.883,0,0,0,.521,1.611Z" transform="translate(-620.625 1116.227)" fill="#fff"/>
    <path id="Path_210" data-name="Path 210" d="M1148.749-922c.613,3.97,1.157,7.986,1.86,11.956q7.26,40.835,14.61,81.671c3.221,17.832,6.6,35.641,9.937,53.427,4.537,23.775,9.347,47.46,13.294,71.3,3.085,18.49,5.014,37.183,7.441,55.763,3.63,27.882,3.743,55.922,2.994,83.94-.862,32.51-2.518,65.019-4.673,97.552-1.656,24.774-4.741,49.434-6.806,74.185-.771,8.757,3.4,21.915,15.7,24.683a17.6,17.6,0,0,0,7.69-.113,47.78,47.78,0,0,1,22.369.2q32.623,7.69,65.042,16.221a44.306,44.306,0,0,1,21.507,12.182c8.734,9.347,11.048,20.781,9.891,33.055-1.974,20.758-11.071,38.567-23.05,55.219a109.6,109.6,0,0,1-53.449,40.677,71.738,71.738,0,0,1-23.843,2.949c-13.2,0-26.407-1.248-39.565-2.269-17.627-1.475-35.278-3.244-52.95-2.269-15.654.862-31.262,2.564-46.87,3.925-13.612,1.18-27.042,2.722-40.7,1.452a52.951,52.951,0,0,1-35.549-16.97c-17.582-19.1-31.943-40.291-41.131-64.724a70.327,70.327,0,0,1-4.878-25.477c.159-15.881,7.26-27.224,21.643-34.143a157.009,157.009,0,0,1,31.512-9.959c15.064-3.562,30.15-7.078,45.373-10.3a43.216,43.216,0,0,1,21.507.635c5.422,1.611,13.408-2.269,17.287-8.008a29.493,29.493,0,0,0,4.537-20.236c-2.132-20.667-4.356-41.289-5.989-61.979-1.747-21.87-3.38-43.762-4.129-65.655-.907-27.088-1.043-54.221-1.134-81.331a408.681,408.681,0,0,1,4.537-57.4c2.722-19.465,5.218-39,8.417-58.372,2.813-16.879,6.511-33.6,9.755-50.409q5.468-28.562,10.776-57.125,6.806-37,13.5-74.049c1.2-6.67,2-13.408,2.994-20.146Zm-32.487,662.037.544.545-.136-.908a159.351,159.351,0,0,0-8.871-18.49,120.35,120.35,0,0,0-44.806-40.677c-11.615-6.375-23.775-10.958-37.342-10.935-18.92,0-30.581,13.771-31.171,34.279.7-1.271,1.112-2.133,1.633-2.927,3.221-4.991,6.148-10.254,9.846-14.905,4.083-5.15,7.895-4.7,11.343.839,2.019,3.2,3.494,6.806,5.513,9.959a195.014,195.014,0,0,0,11.661,17.582c3.471,4.537,8.077,8.417,14.089,8.258a64.94,64.94,0,0,0,13.34-2.994c5.241-1.316,10.368-3.494,15.676-3.97,9.324-.839,17.378,3.131,24.093,9.37,5.2,4.81,9.733,10.05,14.588,15.064Zm57.987.7c5.535-5.581,10.753-11.57,16.72-16.652a32.556,32.556,0,0,1,28.29-7.986c5.354,1.066,10.458,3.448,15.881,4.878a38.568,38.568,0,0,0,10.595,1.679c5.354-.114,9.369-3.517,13.113-7.01a72.3,72.3,0,0,0,13.34-18.739,114.867,114.867,0,0,1,6.6-11.184c2.859-4.106,6.284-4.424,9.8-.907a63.91,63.91,0,0,1,7.1,8.893c2.269,3.221,4.106,6.693,6.148,10.05a36.713,36.713,0,0,0-.817-7.8c-3.04-14.95-12.183-23.98-26.793-26.021a57.15,57.15,0,0,0-25.454,2.836,128.835,128.835,0,0,0-51.929,32.147A89.52,89.52,0,0,0,1175-263a20.638,20.638,0,0,0-.636,3.788l-.295-.34-.2.272Z" transform="translate(-792.516 921.99)" fill="#fff"/>
    <path id="Path_211" data-name="Path 211" d="M1169.432-896.84a56.511,56.511,0,0,1,25.432,8.53c14.9,8.825,26.792,20.985,37.183,34.62,13,17.06,23.367,35.527,28.744,56.467,2.518,9.755,3.653,19.6,1.043,29.492a17.419,17.419,0,0,1-6.193,9.505,459.1,459.1,0,0,0-124.98,155.947A451.777,451.777,0,0,0,1089.3-472.421c-2.269,13.861-3.335,27.882-4.923,41.834-.363,3.063-3.017,4.855-6.67,4.424a4.923,4.923,0,0,1-3.552-2.038,4.922,4.922,0,0,1-.781-4.019c1.089-6.33,2.427-12.637,3.358-18.989,2.768-19.374,5.989-38.68,7.94-58.146,2.405-24.048,4.242-48.209,5.354-72.347a831.414,831.414,0,0,0-1.974-108.419c-1.792-21.121-4.333-42.174-6.443-63.273a14.424,14.424,0,0,1,.794-5.785,784.942,784.942,0,0,1,36.548-86.413c3.789-7.895,7.191-15.88,11.048-23.889,5.785-11.82,14.156-21.03,27.224-24.819C1161.173-895.433,1165.37-896,1169.432-896.84Z" transform="translate(-658.522 953.909)" fill="#fff"/>
    <path id="Path_212" data-name="Path 212" d="M1032.457-896.63a41.245,41.245,0,0,1,35.1,21.847c4.787,8.484,8.53,17.559,12.75,26.361a878.609,878.609,0,0,1,37.093,86.5,29.787,29.787,0,0,1,.749,14.565,902.15,902.15,0,0,0-7.577,91.517c-.477,17.128-.839,34.279-.7,51.408a834.038,834.038,0,0,0,5.9,95.283c3.176,25.613,7.464,51.09,11.343,76.612a5.127,5.127,0,0,1-2.654,5.9,7.328,7.328,0,0,1-7.781-1.656,4.243,4.243,0,0,1-.522-2.019,459.223,459.223,0,0,0-48.073-176.07A457.237,457.237,0,0,0,987.788-719.4a443.606,443.606,0,0,0-44.035-40.064,15.134,15.134,0,0,1-5.036-9.075,58.85,58.85,0,0,1,1.407-30.083c6.488-23.775,18.852-44.375,34.665-63.023a117.476,117.476,0,0,1,34.3-28.789,48.89,48.89,0,0,1,23.367-6.193Z" transform="translate(-830.856 954.175)" fill="#fff"/>
    <path id="Path_213" data-name="Path 213" d="M1123.55-514.145v1.089c.25,4.991-.25,5.626-5.309,6.556-4.537.862-7.056-.34-9.075-4.537-15.881-31.761-32.283-63.386-50.75-93.831a281.842,281.842,0,0,0-53.585-63.522,256.11,256.11,0,0,0-26.067-21.3c-8.167-5.6-17.491-9.483-26.2-14.27-9.665-5.309-19.329-10.64-28.812-16.289-12.614-7.486-17.2-18.6-14.678-33.031a170.145,170.145,0,0,1,13.612-45.373c4.333-9.075,9.46-17.378,17.922-23.14s17.423-6.624,26-1a146.781,146.781,0,0,1,18.648,14.86c16.947,15.54,32.941,32.01,46.145,50.886,22.21,31.761,43.535,63.931,58.69,99.821a422.948,422.948,0,0,1,29.175,102.883c1.974,13.34,3.267,26.793,4.878,40.178Z" transform="translate(-867.637 1043.025)" fill="#fff"/>
    <path id="Path_214" data-name="Path 214" d="M1302.013-746.679c.408,10.89-3.2,18.921-11.071,24.229-9.074,6.148-18.762,11.593-28.381,17.015-7.1,3.97-14.519,7.4-21.779,11.071-10.958,5.558-20.078,13.612-29.266,21.507a284.777,284.777,0,0,0-49,53.381c-10.231,14.883-19.4,30.582-28.131,46.417-11.479,20.735-22.187,41.925-32.941,63.046a7.192,7.192,0,0,1-7.873,4.537,8.794,8.794,0,0,1-2.268-.2c-4.22-.907-4.878-1.679-4.537-5.967A443.817,443.817,0,0,1,1106.478-618.8c12.954-41.312,32.963-79.062,57.17-114.793,12.251-18.149,24.479-36.3,39.883-51.861,10.028-10.209,20.554-19.964,30.944-29.81a49.114,49.114,0,0,1,6.942-5.218c11.593-7.555,23.117-6.375,33.077,3.29a67.213,67.213,0,0,1,14.021,20.849,159.719,159.719,0,0,1,13.5,49.661Z" transform="translate(-641.463 1044.542)" fill="#fff"/>
    <path id="Path_215" data-name="Path 215" d="M1109.536-599.22c18.83.726,37.682,1.18,56.512,2.269,12.478.749,24.955,2.4,36.571,7.4,11.048,4.719,16.38,13.476,17.945,24.955a39.68,39.68,0,0,1-4.991,25.432c-10.98,19.4-26.293,34.03-47.641,41.357a112.046,112.046,0,0,1-34.3,5.1c-17.287.295-34.62,0-51.929-.318-23.775-.544-42.878-11.071-57.987-28.88a102.658,102.658,0,0,1-22.074-40.155c-3.38-12.909.975-21.779,13.067-27.541a80.72,80.72,0,0,1,27.564-6.806c11.162-1.044,22.392-1.815,33.621-2.269s22.482,0,33.735,0Z" transform="translate(-750.763 1331.485)" fill="#fff"/>
    <path id="Path_216" data-name="Path 216" d="M1098.893-568.447a17.626,17.626,0,0,1-11.979-4.537c-14.86-13.317-29.7-26.657-45.169-39.225-18.648-15.132-39.611-26.611-61.253-37.07a498.3,498.3,0,0,0-65.178-25.3c-9.075-2.927-17.038-7.419-22.687-15.518a15.134,15.134,0,0,1-2.11-9.075c-.363-13.748.272-27.36,5.173-40.45a53.063,53.063,0,0,1,25.522-28.857,5.262,5.262,0,0,1,3.29-.386c20.168,3.97,38.181,12.818,54.969,24.343,24.3,16.7,44.647,37.546,62.637,60.755a450.857,450.857,0,0,1,54.13,88.886,192.138,192.138,0,0,1,6.579,18.921,11.58,11.58,0,0,1,.454,2.949C1103.521-569.059,1102.886-568.4,1098.893-568.447Z" transform="translate(-890.44 1116.134)" fill="#fff"/>
    <path id="Path_217" data-name="Path 217" d="M1033.548-630.3l.136.908-.544-.545Z" transform="translate(-709.394 1292.055)" fill="#fefdfd"/>
    <path id="Path_218" data-name="Path 218" d="M1058.979-629.678h-.5l.2-.272.295.34Z" transform="translate(-677.246 1292.499)" fill="#fefdfd"/>
  </g>
</svg>
