<svg id="Layer_1" data-name="Layer 1" xmlns="http://www.w3.org/2000/svg" viewBox="0 0 306.96 370.56"><defs><style>.cls-1{fill:#fefefe;}.cls-2{fill:#e70606;}.cls-3{fill:#e70505;}.cls-4{fill:#e90701;}.cls-5{fill:#fefdfd;}</style></defs><path class="cls-1" d="M959.12,546.26v187.2h-307V362.9h307v180a4,4,0,0,1-.24-.71c-.25-2.5-.34-5-.76-7.5-1.37-8-5.3-14.21-12.53-18.15a2.85,2.85,0,0,0-1.77-.27,57.3,57.3,0,0,0-16.14,5.85c-11.78,6.27-21.46,15.09-30.18,25a183,183,0,0,0-19.59,27.48c-4.21,7.12-8.38,14.25-11.22,22a44.41,44.41,0,0,0-1.57,6.36c-.08.42.41,1.34.72,1.38,1.9.24,3.87.34,5.45-1,2.11-1.84,4.19-3.72,6.2-5.66,16.57-16,35.9-27.55,57.43-35.53,4.75-1.75,9.59-3.25,14.37-4.93a16.23,16.23,0,0,0,8.93-6.87,5.62,5.62,0,0,0,.6-1.87C959,547.78,959,547,959.12,546.26ZM809.46,363.2l-.31,0c-.44,3-.79,5.93-1.32,8.88q-2.93,16.32-6,32.63-2.32,12.6-4.75,25.19c-1.42,7.4-3.06,14.77-4.3,22.21-1.41,8.55-2.51,17.15-3.71,25.73a178.91,178.91,0,0,0-2,25.31c0,12,.09,23.9.5,35.84.32,9.66,1,19.31,1.81,28.94.72,9.12,1.7,18.22,2.64,27.32a13,13,0,0,1-1.95,8.93c-1.71,2.55-5.23,4.23-7.62,3.53a18.93,18.93,0,0,0-9.48-.29c-6.67,1.43-13.32,3-20,4.54a69.24,69.24,0,0,0-13.89,4.4c-6.34,3-9.47,8-9.54,15a31,31,0,0,0,2.15,11.23c4.06,10.77,10.39,20.11,18.13,28.54a23.3,23.3,0,0,0,15.64,7.4c6,.56,12-.12,17.94-.64,6.88-.6,13.76-1.34,20.66-1.72,7.79-.43,15.57.35,23.34,1,5.8.48,11.62,1,17.44,1a31.89,31.89,0,0,0,10.51-1.31A48.29,48.29,0,0,0,879,659c5.28-7.32,9.3-15.19,10.16-24.34.51-5.41-.51-10.46-4.36-14.57a19.43,19.43,0,0,0-9.48-5.38q-14.28-3.76-28.66-7.15a21.1,21.1,0,0,0-9.87-.08,7.91,7.91,0,0,1-3.39,0c-5.42-1.22-7.26-7-6.92-10.88.94-10.9,2.3-21.78,3-32.69,1-14.31,1.68-28.63,2.06-43,.33-12.34.28-24.7-1.32-37-1.07-8.2-1.92-16.43-3.27-24.58-1.75-10.52-3.9-21-5.87-31.43-1.47-7.85-3-15.7-4.38-23.55q-3.27-18-6.44-36C810,366.72,809.73,365,809.46,363.2Zm68.18,25.12c-1.79.37-3.61.63-5.36,1.13-5.78,1.67-9.47,5.73-12,10.95-1.7,3.47-3.2,7-4.87,10.52-6,12.45-11.66,25-16.1,38.1a6.17,6.17,0,0,0-.36,2.55c.93,9.3,2.05,18.58,2.84,27.89a366.33,366.33,0,0,1,.87,47.78c-.49,10.65-1.3,21.29-2.36,31.9-.85,8.57-2.27,17.09-3.5,25.62-.4,2.81-1,5.58-1.47,8.38a2.15,2.15,0,0,0,1.9,2.66c1.61.2,2.78-.6,2.94-1.95.7-6.15,1.2-12.33,2.17-18.44a199.14,199.14,0,0,1,18.23-57.24,202.58,202.58,0,0,1,55.09-68.72,7.61,7.61,0,0,0,2.73-4.19c1.15-4.39.65-8.73-.46-13-2.37-9.23-6.94-17.37-12.67-24.89-4.58-6-9.82-11.38-16.39-15.27A24.91,24.91,0,0,0,877.64,388.32Zm-136.34.21A21.48,21.48,0,0,0,731,391.26,52,52,0,0,0,715.83,404c-7,8.23-12.42,17.31-15.28,27.79-1.19,4.36-1.73,8.78-.62,13.25a6.71,6.71,0,0,0,2.23,4,197.71,197.71,0,0,1,19.4,17.65A203.1,203.1,0,0,1,778.19,594a1.79,1.79,0,0,0,.22.9,3.23,3.23,0,0,0,3.43.72A2.26,2.26,0,0,0,783,593c-1.7-11.25-3.59-22.47-5-33.76a367.65,367.65,0,0,1-2.6-42c-.06-7.55.1-15.1.31-22.65a397.83,397.83,0,0,1,3.34-40.35,13.14,13.14,0,0,0-.33-6.42,388.33,388.33,0,0,0-16.35-38.13c-1.86-3.88-3.51-7.87-5.62-11.62A18.18,18.18,0,0,0,741.3,388.53Zm23.94,207.76.2,0c-.71-5.91-1.28-11.83-2.15-17.72a185.59,185.59,0,0,0-12.86-45.34c-6.68-15.81-16.08-30-25.87-44-5.82-8.33-12.87-15.58-20.33-22.43a65.59,65.59,0,0,0-8.23-6.56c-3.78-2.47-7.75-2.09-11.46.44s-6,6.26-7.9,10.21a74.94,74.94,0,0,0-6,20c-1.11,6.36.91,11.27,6.47,14.57,4.18,2.48,8.44,4.83,12.7,7.18,3.84,2.11,7.95,3.82,11.55,6.28a114.5,114.5,0,0,1,11.49,9.39,124,124,0,0,1,23.62,28c8.15,13.41,15.35,27.33,22.38,41.35.91,1.83,2,2.35,4,2,2.23-.41,2.45-.69,2.34-2.89C765.23,596.61,765.24,596.45,765.24,596.29ZM943.6,494.47a70.11,70.11,0,0,0-5.94-21.9,29.63,29.63,0,0,0-6.18-9.19c-4.39-4.25-9.47-4.78-14.58-1.44a20.74,20.74,0,0,0-3.06,2.3c-4.58,4.34-9.21,8.64-13.64,13.13-6.79,6.89-12.18,14.88-17.58,22.87C872,516,863.13,532.62,857.42,550.83a195.72,195.72,0,0,0-8.69,47.23c-.11,1.9.17,2.23,2,2.63a7.61,7.61,0,0,0,1,.09,3.15,3.15,0,0,0,3.47-2c4.75-9.31,9.46-18.64,14.52-27.78,3.86-7,7.89-13.9,12.4-20.47A125.48,125.48,0,0,1,903.71,527c4-3.52,8.08-7,12.9-9.49,3.21-1.62,6.47-3.12,9.6-4.88,4.24-2.38,8.49-4.78,12.51-7.5C942.19,502.8,943.78,499.26,943.6,494.47Zm-133,191.47v.24c-5,0-9.92-.12-14.87,0s-9.89.5-14.82,1a35.8,35.8,0,0,0-12.15,3c-5.33,2.54-7.25,6.45-5.76,12.15A45.14,45.14,0,0,0,772.7,720c6.66,7.86,15.09,12.5,25.57,12.73,7.62.18,15.26.27,22.88.14a49.07,49.07,0,0,0,15.12-2.24c9.46-3.22,16.21-9.69,21.05-18.24a17.46,17.46,0,0,0,2.2-11.2c-.69-5.07-3-8.92-7.91-11C846.46,688,841,687.27,835.49,687,827.19,686.46,818.88,686.26,810.58,685.94Zm-66.26-81.36c1.76,0,2-.26,1.94-2a5.18,5.18,0,0,0-.2-1.3,85.52,85.52,0,0,0-2.89-8.34,199.54,199.54,0,0,0-23.87-39.18c-7.93-10.22-16.89-19.41-27.61-26.77-7.4-5.09-15.34-9-24.23-10.73a2.38,2.38,0,0,0-1.45.16,23.38,23.38,0,0,0-11.25,12.72c-2.15,5.76-2.43,11.77-2.28,17.82a6.63,6.63,0,0,0,.94,4c2.49,3.56,6,5.54,10,6.83a223.22,223.22,0,0,1,28.74,11.15c9.51,4.62,18.75,9.67,27,16.34,6.82,5.54,13.37,11.42,19.91,17.29A7.79,7.79,0,0,0,744.32,604.58Z" transform="translate(-652.16 -362.9)"/><path class="cls-2" d="M959.12,546.26c-.1.76-.14,1.52-.3,2.27a5.62,5.62,0,0,1-.6,1.87,16.23,16.23,0,0,1-8.93,6.87c-4.78,1.68-9.62,3.18-14.37,4.93-21.53,8-40.86,19.53-57.43,35.53-2,1.94-4.09,3.82-6.2,5.66-1.58,1.37-3.55,1.27-5.45,1-.31,0-.8-1-.72-1.38a44.41,44.41,0,0,1,1.57-6.36c2.84-7.79,7-14.92,11.22-22a183,183,0,0,1,19.59-27.48c8.72-9.95,18.4-18.77,30.18-25a57.3,57.3,0,0,1,16.14-5.85,2.85,2.85,0,0,1,1.77.27c7.23,3.94,11.16,10.19,12.53,18.15.42,2.47.51,5,.76,7.5a4,4,0,0,0,.24.71Z" transform="translate(-652.16 -362.9)"/><path class="cls-3" d="M809.46,363.2c.27,1.76.51,3.52.82,5.27q3.19,18,6.44,36c1.42,7.85,2.91,15.7,4.38,23.55,2,10.47,4.12,20.91,5.87,31.43,1.35,8.15,2.2,16.38,3.27,24.58,1.6,12.29,1.65,24.65,1.32,37-.38,14.33-1.11,28.65-2.06,43-.73,10.91-2.09,21.79-3,32.69-.34,3.87,1.5,9.66,6.92,10.88a7.91,7.91,0,0,0,3.39,0,21.1,21.1,0,0,1,9.87.08Q861,611,875.31,614.7a19.43,19.43,0,0,1,9.48,5.38c3.85,4.11,4.87,9.16,4.36,14.57-.86,9.15-4.88,17-10.16,24.34a48.29,48.29,0,0,1-23.56,17.92,31.89,31.89,0,0,1-10.51,1.31c-5.82-.06-11.64-.56-17.44-1-7.77-.64-15.55-1.42-23.34-1-6.9.38-13.78,1.12-20.66,1.72-6,.52-11.92,1.2-17.94.64a23.3,23.3,0,0,1-15.64-7.4c-7.74-8.43-14.07-17.77-18.13-28.54a31,31,0,0,1-2.15-11.23c.07-7,3.2-12,9.54-15a69.24,69.24,0,0,1,13.89-4.4c6.64-1.57,13.29-3.11,20-4.54a18.93,18.93,0,0,1,9.48.29c2.39.7,5.91-1,7.62-3.53a13,13,0,0,0,1.95-8.93c-.94-9.1-1.92-18.2-2.64-27.32-.77-9.63-1.49-19.28-1.81-28.94-.41-11.94-.47-23.89-.5-35.84a178.91,178.91,0,0,1,2-25.31c1.2-8.58,2.3-17.18,3.71-25.73,1.24-7.44,2.88-14.81,4.3-22.21q2.42-12.58,4.75-25.19,3-16.31,6-32.63c.53-2.95.88-5.92,1.32-8.88ZM795.14,655l.24.23,0-.39a72.91,72.91,0,0,0-3.92-8.16,53.1,53.1,0,0,0-19.74-17.93C766.54,626,761.18,624,755.2,624c-8.34,0-13.48,6.06-13.74,15.11.31-.56.49-.94.72-1.29,1.43-2.21,2.71-4.53,4.34-6.58,1.8-2.26,3.48-2.07,5,.37.89,1.41,1.54,3,2.43,4.4,1.65,2.62,3.24,5.31,5.14,7.75,1.53,1.95,3.56,3.7,6.21,3.63A27.38,27.38,0,0,0,771.2,646c2.31-.58,4.57-1.54,6.91-1.75,4.11-.36,7.66,1.39,10.62,4.13C791,650.51,793,652.82,795.14,655Zm25.56.3c2.44-2.46,4.74-5.1,7.37-7.34a14.32,14.32,0,0,1,12.47-3.51c2.36.47,4.61,1.51,7,2.14a16.92,16.92,0,0,0,4.66.74c2.37-.05,4.13-1.55,5.79-3.09a31.61,31.61,0,0,0,5.87-8.25,50.77,50.77,0,0,1,2.91-4.94c1.26-1.8,2.77-1.94,4.32-.39a27.51,27.51,0,0,1,3.13,3.91c1,1.42,1.81,2.95,2.71,4.44a17,17,0,0,0-.35-3.45c-1.35-6.58-5.38-10.57-11.82-11.47a25.2,25.2,0,0,0-11.22,1.25,57,57,0,0,0-22.89,14.17A39.31,39.31,0,0,0,821,653.68a8.46,8.46,0,0,0-.29,1.67l-.12-.14-.1.11Z" transform="translate(-652.16 -362.9)"/><path class="cls-3" d="M877.64,388.32a24.91,24.91,0,0,1,11.21,3.76c6.57,3.89,11.81,9.25,16.39,15.27,5.73,7.52,10.3,15.66,12.67,24.89,1.11,4.29,1.61,8.63.46,13a7.61,7.61,0,0,1-2.73,4.19,202.58,202.58,0,0,0-55.09,68.72,199.14,199.14,0,0,0-18.23,57.24c-1,6.11-1.47,12.29-2.17,18.44-.16,1.35-1.33,2.15-2.94,1.95a2.15,2.15,0,0,1-1.9-2.66c.48-2.8,1.07-5.57,1.47-8.38,1.23-8.53,2.65-17,3.5-25.62,1.06-10.61,1.87-21.25,2.36-31.9a366.33,366.33,0,0,0-.87-47.78c-.79-9.31-1.91-18.59-2.84-27.89a6.17,6.17,0,0,1,.36-2.55c4.44-13.09,10.13-25.65,16.1-38.1,1.67-3.48,3.17-7.05,4.87-10.52,2.55-5.22,6.24-9.28,12-10.95C874,389,875.85,388.69,877.64,388.32Z" transform="translate(-652.16 -362.9)"/><path class="cls-3" d="M741.3,388.53a18.18,18.18,0,0,1,15.47,9.59c2.11,3.75,3.76,7.74,5.62,11.62a388.33,388.33,0,0,1,16.35,38.13,13.14,13.14,0,0,1,.33,6.42,397.83,397.83,0,0,0-3.34,40.35c-.21,7.55-.37,15.1-.31,22.65a367.65,367.65,0,0,0,2.6,42c1.4,11.29,3.29,22.51,5,33.76a2.26,2.26,0,0,1-1.17,2.6,3.23,3.23,0,0,1-3.43-.72,1.79,1.79,0,0,1-.22-.9,203.1,203.1,0,0,0-56.63-127.34A197.71,197.71,0,0,0,702.16,449a6.71,6.71,0,0,1-2.23-4c-1.11-4.47-.57-8.89.62-13.25,2.86-10.48,8.31-19.56,15.28-27.79A52,52,0,0,1,731,391.26,21.48,21.48,0,0,1,741.3,388.53Z" transform="translate(-652.16 -362.9)"/><path class="cls-3" d="M765.24,596.29c0,.16,0,.32,0,.48.11,2.2-.11,2.48-2.34,2.89-2,.38-3.11-.14-4-2-7-14-14.23-27.94-22.38-41.35a124,124,0,0,0-23.62-28,114.5,114.5,0,0,0-11.49-9.39c-3.6-2.46-7.71-4.17-11.55-6.28-4.26-2.35-8.52-4.7-12.7-7.18-5.56-3.3-7.58-8.21-6.47-14.57a74.94,74.94,0,0,1,6-20c1.91-3.95,4.17-7.67,7.9-10.21s7.68-2.91,11.46-.44a65.59,65.59,0,0,1,8.23,6.56c7.46,6.85,14.51,14.1,20.33,22.43,9.79,14,19.19,28.17,25.87,44a185.59,185.59,0,0,1,12.86,45.34c.87,5.89,1.44,11.81,2.15,17.72Z" transform="translate(-652.16 -362.9)"/><path class="cls-3" d="M943.6,494.47c.18,4.79-1.41,8.33-4.88,10.67-4,2.72-8.27,5.12-12.51,7.5-3.13,1.76-6.39,3.26-9.6,4.88-4.82,2.45-8.85,6-12.9,9.49a125.48,125.48,0,0,0-21.6,23.52c-4.51,6.57-8.54,13.49-12.4,20.47-5.06,9.14-9.77,18.47-14.52,27.78a3.15,3.15,0,0,1-3.47,2,7.61,7.61,0,0,1-1-.09c-1.86-.4-2.14-.73-2-2.63a195.72,195.72,0,0,1,8.69-47.23c5.71-18.21,14.53-34.84,25.2-50.59,5.4-8,10.79-16,17.58-22.87,4.43-4.49,9.06-8.79,13.64-13.13a20.74,20.74,0,0,1,3.06-2.3c5.11-3.34,10.19-2.81,14.58,1.44a29.63,29.63,0,0,1,6.18,9.19A70.11,70.11,0,0,1,943.6,494.47Z" transform="translate(-652.16 -362.9)"/><path class="cls-3" d="M810.58,685.94c8.3.32,16.61.52,24.91,1,5.5.32,11,1,16.12,3.26,4.87,2.08,7.22,5.93,7.91,11a17.46,17.46,0,0,1-2.2,11.2c-4.84,8.55-11.59,15-21.05,18.24a49.07,49.07,0,0,1-15.12,2.24c-7.62.13-15.26,0-22.88-.14-10.48-.23-18.91-4.87-25.57-12.73A45.14,45.14,0,0,1,763,702.33c-1.49-5.7.43-9.61,5.76-12.15a35.8,35.8,0,0,1,12.15-3c4.93-.46,9.87-.8,14.82-1s9.91,0,14.87,0Z" transform="translate(-652.16 -362.9)"/><path class="cls-4" d="M744.32,604.58a7.79,7.79,0,0,1-5.28-2c-6.54-5.87-13.09-11.75-19.91-17.29-8.22-6.67-17.46-11.72-27-16.34a223.22,223.22,0,0,0-28.74-11.15c-4-1.29-7.51-3.27-10-6.83a6.63,6.63,0,0,1-.94-4c-.15-6.05.13-12.06,2.28-17.82A23.38,23.38,0,0,1,666,516.41a2.38,2.38,0,0,1,1.45-.16c8.89,1.74,16.83,5.64,24.23,10.73,10.72,7.36,19.68,16.55,27.61,26.77a199.54,199.54,0,0,1,23.87,39.18,85.52,85.52,0,0,1,2.89,8.34,5.18,5.18,0,0,1,.2,1.3C746.37,604.32,746.08,604.6,744.32,604.58Z" transform="translate(-652.16 -362.9)"/><path class="cls-5" d="M820.71,655.36a7.76,7.76,0,0,1,.28-1.68,39.31,39.31,0,0,1,9.62-14.14,57,57,0,0,1,22.89-14.17,25.2,25.2,0,0,1,11.22-1.25c6.44.9,10.47,4.89,11.82,11.47a17,17,0,0,1,.35,3.45c-.9-1.49-1.72-3-2.71-4.44a27.51,27.51,0,0,0-3.13-3.91c-1.55-1.55-3.06-1.41-4.32.39a50.77,50.77,0,0,0-2.91,4.94,31.61,31.61,0,0,1-5.87,8.25c-1.66,1.54-3.42,3-5.79,3.09a16.92,16.92,0,0,1-4.66-.74c-2.35-.63-4.6-1.67-7-2.14A14.32,14.32,0,0,0,828.07,648c-2.63,2.24-4.93,4.88-7.37,7.34Z" transform="translate(-652.16 -362.9)"/><path class="cls-5" d="M795.14,655c-2.12-2.21-4.16-4.52-6.41-6.61-3-2.74-6.51-4.49-10.62-4.13-2.34.21-4.6,1.17-6.91,1.75a27.38,27.38,0,0,1-5.88,1.32c-2.65.07-4.68-1.68-6.21-3.63-1.9-2.44-3.49-5.13-5.14-7.75-.89-1.42-1.54-3-2.43-4.4-1.54-2.44-3.22-2.63-5-.37-1.63,2-2.91,4.37-4.34,6.58-.23.35-.41.73-.72,1.29.26-9.05,5.4-15.1,13.74-15.11,6,0,11.34,2,16.47,4.81a53.1,53.1,0,0,1,19.74,17.93,72.91,72.91,0,0,1,3.92,8.16Z" transform="translate(-652.16 -362.9)"/><path class="cls-5" d="M795.33,654.87l0,.39-.24-.23Z" transform="translate(-652.16 -362.9)"/><path class="cls-5" d="M820.7,655.33h-.22l.1-.11.12.14Z" transform="translate(-652.16 -362.9)"/></svg>