<svg id="Layer_1" data-name="Layer 1" xmlns="http://www.w3.org/2000/svg" viewBox="0 0 306.67 369.78"><defs><style>.cls-1{fill:#e70606;}.cls-2{fill:#e70505;}.cls-3{fill:#e90701;}.cls-4{fill:#fefdfd;}</style></defs><path class="cls-1" d="M1197.11-738.9c-.09.75-.14,1.52-.29,2.26a5.92,5.92,0,0,1-.6,1.88,16.31,16.31,0,0,1-8.94,6.87c-4.77,1.67-9.62,3.17-14.36,4.93-21.53,8-40.86,19.52-57.43,35.53q-3,2.91-6.2,5.65c-1.58,1.37-3.55,1.27-5.45,1-.31,0-.8-1-.72-1.38a44.08,44.08,0,0,1,1.57-6.36c2.84-7.8,7-14.93,11.22-22A182.53,182.53,0,0,1,1135.5-738c8.72-10,18.4-18.78,30.18-25a57.33,57.33,0,0,1,16.14-5.86,2.93,2.93,0,0,1,1.77.28c7.23,3.93,11.16,10.19,12.53,18.14.42,2.48.51,5,.76,7.51a3.91,3.91,0,0,0,.23.71Z" transform="translate(-890.44 921.99)"/><path class="cls-2" d="M1047.46-922c.27,1.75.51,3.52.82,5.27q3.2,18,6.44,36c1.42,7.86,2.91,15.71,4.38,23.55,2,10.48,4.12,20.92,5.86,31.43,1.36,8.15,2.21,16.39,3.28,24.58,1.6,12.29,1.65,24.65,1.32,37-.38,14.33-1.11,28.66-2.06,43-.73,10.92-2.09,21.79-3,32.7-.34,3.86,1.5,9.66,6.92,10.88a7.76,7.76,0,0,0,3.39-.05,21.06,21.06,0,0,1,9.86.09q14.38,3.39,28.67,7.15a19.53,19.53,0,0,1,9.48,5.37c3.85,4.12,4.87,9.16,4.36,14.57-.87,9.15-4.88,17-10.16,24.34a48.31,48.31,0,0,1-23.56,17.93,31.62,31.62,0,0,1-10.51,1.3c-5.82,0-11.64-.55-17.44-1-7.77-.65-15.55-1.43-23.34-1-6.9.38-13.78,1.13-20.66,1.73-6,.52-11.92,1.2-17.94.64A23.34,23.34,0,0,1,987.9-614c-7.75-8.42-14.08-17.76-18.13-28.53a31,31,0,0,1-2.15-11.23c.07-7,3.2-12,9.54-15.05a69.21,69.21,0,0,1,13.89-4.39c6.64-1.57,13.29-3.12,20-4.54a19.05,19.05,0,0,1,9.48.28c2.39.71,5.91-1,7.62-3.53a13,13,0,0,0,2-8.92c-.94-9.11-1.92-18.2-2.64-27.32-.77-9.64-1.49-19.29-1.82-28.94-.4-11.94-.46-23.9-.5-35.85a180.15,180.15,0,0,1,2-25.3c1.2-8.58,2.3-17.19,3.71-25.73,1.24-7.44,2.87-14.81,4.3-22.22q2.41-12.59,4.75-25.18,3-16.31,5.95-32.64c.53-2.94.88-5.91,1.32-8.88Zm-14.32,291.82.24.24-.06-.4a70.2,70.2,0,0,0-3.91-8.15,53.05,53.05,0,0,0-19.75-17.93c-5.12-2.81-10.48-4.83-16.46-4.82-8.34,0-13.48,6.07-13.74,15.11.31-.56.49-.94.72-1.29,1.42-2.2,2.71-4.52,4.34-6.57,1.8-2.27,3.48-2.07,5,.37.89,1.41,1.54,3,2.43,4.39a86,86,0,0,0,5.14,7.75c1.53,2,3.56,3.71,6.21,3.64a28.63,28.63,0,0,0,5.88-1.32c2.31-.58,4.57-1.54,6.91-1.75,4.11-.37,7.66,1.38,10.62,4.13C1029-634.66,1031-632.35,1033.14-630.14Zm25.56.31c2.44-2.46,4.74-5.1,7.37-7.34a14.35,14.35,0,0,1,12.47-3.52c2.36.47,4.61,1.52,7,2.15a17,17,0,0,0,4.67.74c2.36-.05,4.13-1.55,5.78-3.09a31.87,31.87,0,0,0,5.88-8.26,50.61,50.61,0,0,1,2.91-4.93c1.26-1.81,2.77-1.95,4.32-.4a28.18,28.18,0,0,1,3.13,3.92c1,1.42,1.81,2.95,2.71,4.43a16.19,16.19,0,0,0-.36-3.44c-1.34-6.59-5.37-10.57-11.81-11.47a25.19,25.19,0,0,0-11.22,1.25,56.79,56.79,0,0,0-22.89,14.17,39.46,39.46,0,0,0-9.63,14.14,9.1,9.1,0,0,0-.28,1.67l-.13-.15-.09.12Z" transform="translate(-890.44 921.99)"/><path class="cls-2" d="M1115.64-896.84a24.91,24.91,0,0,1,11.21,3.76c6.57,3.89,11.81,9.25,16.39,15.26,5.73,7.52,10.3,15.66,12.67,24.89,1.11,4.3,1.61,8.64.46,13a7.68,7.68,0,0,1-2.73,4.19A202.37,202.37,0,0,0,1098.55-767a199.14,199.14,0,0,0-18.23,57.24c-1,6.11-1.47,12.29-2.17,18.44-.16,1.35-1.33,2.14-2.94,1.95a2.17,2.17,0,0,1-1.91-2.67c.48-2.79,1.07-5.57,1.48-8.37,1.22-8.54,2.64-17.05,3.5-25.63,1.06-10.6,1.87-21.25,2.36-31.89a366.48,366.48,0,0,0-.87-47.79c-.79-9.31-1.91-18.59-2.84-27.89a6.36,6.36,0,0,1,.35-2.55,346,346,0,0,1,16.11-38.09c1.67-3.48,3.17-7,4.87-10.53,2.55-5.21,6.24-9.27,12-10.94C1112-896.22,1113.85-896.47,1115.64-896.84Z" transform="translate(-890.44 921.99)"/><path class="cls-2" d="M979.3-896.63A18.18,18.18,0,0,1,994.77-887c2.11,3.74,3.76,7.74,5.62,11.62a387.3,387.3,0,0,1,16.35,38.13,13.13,13.13,0,0,1,.33,6.42,397.63,397.63,0,0,0-3.34,40.34c-.21,7.55-.37,15.11-.31,22.66a367.62,367.62,0,0,0,2.6,42c1.4,11.29,3.29,22.52,5,33.77a2.26,2.26,0,0,1-1.17,2.6,3.23,3.23,0,0,1-3.43-.73,1.87,1.87,0,0,1-.23-.89A202.42,202.42,0,0,0,995-768.69a201.55,201.55,0,0,0-35.39-49.82,195.55,195.55,0,0,0-19.41-17.66,6.67,6.67,0,0,1-2.22-4,25.94,25.94,0,0,1,.62-13.26c2.86-10.48,8.31-19.56,15.28-27.78A51.78,51.78,0,0,1,969-893.9,21.55,21.55,0,0,1,979.3-896.63Z" transform="translate(-890.44 921.99)"/><path class="cls-2" d="M1003.24-688.87c0,.16,0,.32,0,.48.11,2.2-.11,2.48-2.34,2.89-2,.38-3.11-.15-4-2-7-14-14.23-27.94-22.37-41.36a124.23,124.23,0,0,0-23.62-28,112.89,112.89,0,0,0-11.49-9.39c-3.6-2.47-7.71-4.18-11.55-6.29-4.26-2.34-8.52-4.69-12.7-7.18-5.56-3.3-7.58-8.2-6.47-14.56a75,75,0,0,1,6-20c1.91-4,4.17-7.66,7.9-10.2s7.68-2.92,11.46-.44a64.7,64.7,0,0,1,8.22,6.55c7.47,6.85,14.52,14.11,20.34,22.43,9.79,14,19.19,28.18,25.87,44a186.43,186.43,0,0,1,12.86,45.35c.87,5.88,1.44,11.81,2.15,17.71Z" transform="translate(-890.44 921.99)"/><path class="cls-2" d="M1181.6-790.7c.18,4.8-1.41,8.34-4.88,10.68-4,2.71-8.27,5.11-12.51,7.5-3.13,1.75-6.4,3.26-9.6,4.88-4.83,2.45-8.85,6-12.9,9.48a125.53,125.53,0,0,0-21.6,23.53c-4.51,6.56-8.55,13.48-12.4,20.46-5.06,9.14-9.78,18.48-14.52,27.79a3.17,3.17,0,0,1-3.47,2c-.32,0-.65,0-1-.09-1.86-.4-2.15-.74-2-2.63a195.63,195.63,0,0,1,8.69-47.23c5.71-18.21,14.53-34.85,25.2-50.6,5.4-8,10.79-16,17.58-22.86,4.42-4.5,9.06-8.8,13.64-13.14a21.65,21.65,0,0,1,3.06-2.3c5.11-3.33,10.19-2.81,14.58,1.45a29.63,29.63,0,0,1,6.18,9.19A70.4,70.4,0,0,1,1181.6-790.7Z" transform="translate(-890.44 921.99)"/><path class="cls-2" d="M1048.58-599.22c8.3.32,16.61.52,24.91,1,5.5.33,11,1.06,16.12,3.26,4.87,2.08,7.22,5.94,7.91,11a17.49,17.49,0,0,1-2.2,11.21c-4.84,8.55-11.59,15-21,18.23a49.39,49.39,0,0,1-15.12,2.25c-7.62.13-15.26,0-22.89-.14-10.48-.24-18.9-4.88-25.56-12.73a45.25,45.25,0,0,1-9.73-17.7c-1.49-5.69.43-9.6,5.76-12.14a35.58,35.58,0,0,1,12.15-3c4.92-.46,9.87-.8,14.82-1s9.91,0,14.87,0Z" transform="translate(-890.44 921.99)"/><path class="cls-3" d="M982.32-680.58a7.77,7.77,0,0,1-5.28-2c-6.55-5.87-13.09-11.75-19.91-17.29-8.22-6.67-17.46-11.73-27-16.34a219.65,219.65,0,0,0-28.73-11.15c-4-1.29-7.51-3.27-10-6.84a6.67,6.67,0,0,1-.93-4c-.16-6.06.12-12.06,2.28-17.83A23.39,23.39,0,0,1,904-768.75a2.32,2.32,0,0,1,1.45-.17c8.89,1.75,16.83,5.65,24.23,10.73,10.71,7.36,19.68,16.55,27.61,26.78a198.73,198.73,0,0,1,23.86,39.18,84.67,84.67,0,0,1,2.9,8.34,5.11,5.11,0,0,1,.2,1.3C984.36-680.85,984.08-680.56,982.32-680.58Z" transform="translate(-890.44 921.99)"/><path class="cls-4" d="M1033.32-630.3l.06.4-.24-.24Z" transform="translate(-890.44 921.99)"/><path class="cls-4" d="M1058.7-629.83h-.22l.09-.12.13.15Z" transform="translate(-890.44 921.99)"/></svg>